<?xml version="1.0" standalone="no"?>
<!DOCTYPE svg PUBLIC "-//W3C//DTD SVG 20010904//EN"
 "http://www.w3.org/TR/2001/REC-SVG-20010904/DTD/svg10.dtd">
<svg version="1.0" xmlns="http://www.w3.org/2000/svg"
 width="219.000000pt" height="230.000000pt" viewBox="0 0 219.000000 230.000000"
 preserveAspectRatio="xMidYMid meet">

<g transform="translate(0.000000,230.000000) scale(0.100000,-0.100000)"
fill="#000000" stroke="none">
<path d="M980 2190 c-266 -31 -509 -166 -676 -374 -140 -175 -210 -363 -221
-588 -14 -302 86 -565 293 -773 494 -493 1318 -357 1632 270 75 150 107 316
99 503 -22 500 -403 906 -903 962 -102 11 -128 11 -224 0z m373 -114 c329 -98
569 -353 654 -694 23 -93 23 -322 0 -416 -85 -340 -337 -602 -672 -698 -68
-19 -103 -23 -240 -23 -137 0 -172 4 -240 23 -526 150 -815 692 -644 1207 104
312 366 546 694 619 112 25 335 16 448 -18z"/>
<path d="M843 1655 l-23 -16 0 -479 0 -479 22 -15 c12 -9 31 -16 41 -16 10 0
159 109 332 241 314 241 315 242 315 279 l0 38 -307 228 c-170 125 -319 229
-333 231 -14 2 -35 -3 -47 -12z"/>
</g>
</svg>
